# xmcd
#
# Track frame offsets: 
#        150
#        13870
#        27457
#        41562
#        58680
#        75225
#        90297
#        107735
#        121250
#        133910
#        148135
#        161697
#        176260
#        187385
#        204922
#        222512
#        236077
#        251440
#
# Disc length: 3552 seconds
#
# Revision: 4
# Processed by: cddbd v1.5.2PL0 Copyright (c) Steve Scherf et al.
# Submitted via: ExactAudioCopy v0.99pb5
#
DISCID=fd0dde12
DTITLE=Tom Astor - Ich bin wie ich bin
DYEAR=1994
DGENRE=Country
TTITLE0=Ich bin wie ich bin
TTITLE1=Kleiner Rebell
TTITLE2=Sie ist wie ein neues Leben 
TTITLE3=Starke schwache Seiten
TTITLE4=Verrückt sein und sonst gar nichts
TTITLE5=Es sind nicht nur alte Stiefel
TTITLE6=Frau`n
TTITLE7=100.000 Tonnen
TTITLE8=Spar dir dein Lächeln nicht für Morgen auf
TTITLE9=Hungrige Herzen
TTITLE10=Du bist das Grösste für mich 
TTITLE11=Ein Brief aus Kalifornien
TTITLE12=Tennessee Waltz 
TTITLE13=Sie reden schneller, als sie Denken
TTITLE14=Rück mir ganz dicht auf die Pelle
TTITLE15=Was uns nicht umhaut
TTITLE16=Das ist meine Freiheit 
TTITLE17=Auf wiedersehn, good bye!
EXTD=
EXTT0=
EXTT1=
EXTT2=(Ein Lied Für (M)Eine Tochter) (Just Another Rhinestone)
EXTT3=
EXTT4=
EXTT5=
EXTT6=
EXTT7=
EXTT8=
EXTT9=
EXTT10=(The Most Beautiful Girl)
EXTT11=
EXTT12=(Mit The Joardanaires)
EXTT13=
EXTT14=(Mit The Joardanaires)
EXTT15=(Macht Uns Hart)
EXTT16=(Rhinestone Cowboy)
EXTT17=
PLAYORDER=
